PathFileType	4	(X/Y/Z)	45_2_53_p0_0-218_filt_butterworth.trc
DataRate	CameraRate	NumFrames	NumMarkers	Units	OrigDataRate	OrigDataStartFrame	OrigNumFrames
56.0	56.0	5	27	m	56.0	163	218
Frame#	Time	RHip			RKnee			RAnkle			RBigToe			RSmallToe			RHeel			LHip			LKnee			LAnkle			LBigToe			LSmallToe			LHeel			Neck			Head			Nose			RShoulder			RElbow			RWrist			RThumb			RIndex			RPinky			LShoulder			LElbow			LWrist			LThumb			LIndex			LPinky			
		X1	Y1	Z1	X2	Y2	Z2	X3	Y3	Z3	X4	Y4	Z4	X5	Y5	Z5	X6	Y6	Z6	X7	Y7	Z7	X8	Y8	Z8	X9	Y9	Z9	X10	Y10	Z10	X11	Y11	Z11	X12	Y12	Z12	X13	Y13	Z13	X14	Y14	Z14	X15	Y15	Z15	X16	Y16	Z16	X17	Y17	Z17	X18	Y18	Z18	X19	Y19	Z19	X20	Y20	Z20	X21	Y21	Z21	X22	Y22	Z22	X23	Y23	Z23	X24	Y24	Z24	X25	Y25	Z25	X26	Y26	Z26	X27	Y27	Z27	
163	2.9107142857142856	0.477101829225835	0.443942139063777	0.8012588258296484	0.53269237085687	0.5691759309216126	1.2454159153144877	0.5970081942102713	0.7536792738097838	1.6670776868556727	0.5925305337717162	0.6238772341928357	1.7395393404340398	0.6577690997626622	0.6415275708950052	1.734420616287423	0.5933474367295105	0.8546653907814004	1.713319556506511	0.2744747833550768	0.4256542270937467	0.8363242095329386	0.3351229275205584	0.6108275481986094	1.272430074530227	0.39582740185122794	0.843071277268888	1.7252117773783833	0.4297506688270818	0.649023170350705	1.7778511956831773	0.3714675994902225	0.714926862015837	1.785762157371655	0.4187666824269724	0.886975095091966	1.7508674157612734	0.2663928543001126	0.2776681769133185	0.2739849790600982	0.23280936297184535	0.1869926610823038	0.0443634153011577	0.29642389958738585	0.15120008564477816	0.19738763052056085	0.45466796192500986	0.3319589836102536	0.29883301957781166	0.6138026860503688	0.44701341021806335	0.4877511696074133	0.6102327449679952	0.20673309451964542	0.46329784670773255	0.5964018670670239	0.1294072137777201	0.3975844701614695	0.6149928764605441	0.10128931236971905	0.41293588562491784	0.6273336545030641	0.10987749496923728	0.4714235251256147	0.11810460371457772	0.23621769030747158	0.3956386393451885	-0.002325626518542915	0.334673317180343	0.6115239316572647	0.06918533719706857	0.05395736020093435	0.561989482112229	0.09686250003356366	-0.031161617154900307	0.49341623886585484	0.09224164270145366	-0.035466032173089045	0.4879382754645176	0.07958542114080187	-0.02436782457709863	0.5172991546492688
164	2.9285714285714284	0.4760631850493895	0.44345965587167935	0.8019906477536087	0.5306372476230988	0.567411667886141	1.2454669194333108	0.5939982968005638	0.7450879776863094	1.6665864335348424	0.5935656618436748	0.6265574907366522	1.7410418441447877	0.6574773997064566	0.6448358913206133	1.7351357236318474	0.5904263623198469	0.8502148504291213	1.7153096614512153	0.27068610090916856	0.42562915103296406	0.8358997092043083	0.33382760263442657	0.6051794982765992	1.2735766482942283	0.39621402153552304	0.8447162985541842	1.7259447795908882	0.42772036451137196	0.6488113457848143	1.7785279585459393	0.37018455726162497	0.7148213303477033	1.7862054039263475	0.4188329737545887	0.8866537761297577	1.7520029483577768	0.2652591106535458	0.2774578880431869	0.274694259355829	0.23025096544952933	0.18509944088447697	0.044799711943422714	0.29603187083478005	0.14840722795056527	0.19830460358045857	0.45655512755184363	0.3265258673779159	0.3014023985548833	0.6104559555375647	0.4501266794243937	0.4879833991471969	0.607436833843392	0.20994800542987058	0.4724024113021532	0.5991179880757599	0.12633431569911052	0.4149191717200598	0.6160508884513478	0.11110491860105064	0.43210524121224536	0.6267845621047383	0.11347765377007232	0.47936741775865366	0.1177911274456034	0.2365871468437276	0.3976370030010636	0.0018329247411959268	0.3370648180679853	0.6179964755472104	0.0722701287718767	0.06795538994783369	0.5676663496946917	0.10344643857963337	-0.03887608186020035	0.5035585320353084	0.09971891268299836	-0.041619982268849394	0.5010090341308165	0.08929866475025407	-0.030281974593290205	0.5300739759311359
165	2.946428571428572	0.4738698878755051	0.4418375291570285	0.8007075401994997	0.5276672421880706	0.567236587167062	1.2465768810405313	0.5918536284767941	0.7376284201167997	1.666016197180921	0.5927791986921469	0.6212645822693247	1.7412353647006373	0.6553477473456333	0.6453292214769094	1.7344079872585605	0.5876160003996922	0.8431331853921654	1.7173650438787385	0.26572885045107836	0.42717275867738724	0.8352675702259764	0.3333260882077166	0.6027082864207289	1.2745407968896187	0.3961056961479164	0.8452544869264346	1.7274052597129852	0.4263761178184284	0.6478850698109075	1.77775226638314	0.36958422348981074	0.7144021722907403	1.785927065935481	0.4182445544969628	0.8854962731562381	1.753754908974167	0.26455383379046077	0.277063131787529	0.2760193902178579	0.22776843727491858	0.17973725080537006	0.046101786463816664	0.2959872411085581	0.14744788902479466	0.1986222463195725	0.4581277756596286	0.32001209995507485	0.3038085569013423	0.6044046392747703	0.45527692405435705	0.48561619272562784	0.6056602714866348	0.2152382491188651	0.4866946508685857	0.600635690545557	0.11234572646959598	0.44035935162802153	0.614514297288374	0.11391457539109491	0.4534186181975024	0.625503906764909	0.11565056792206285	0.49296940436223097	0.11919027040536062	0.23840687074731215	0.39892887384424736	0.010097817767781765	0.343683918155015	0.622874573110473	0.07673304990694255	0.08665719560961171	0.5730815385432956	0.11025598349501026	-0.0394343188399439	0.5170020362238849	0.10715954495316574	-0.04614085011848356	0.5169885144559468	0.09653297657969544	-0.03046645379412899	0.5492643926261751
166	2.9642857142857144	0.4707313341399453	0.4395452317875181	0.7972054188154677	0.5243864426970728	0.5677112105781343	1.2486186157065957	0.5909040104946713	0.7329783157943377	1.6655298142228296	0.5899732496054542	0.6077634044988202	1.7389258761611606	0.6513974283555451	0.6352031759502518	1.7309840312284073	0.5856675356050837	0.8341057531646354	1.719243841335362	0.25938990039727466	0.4309165618692042	0.8342153547200992	0.33289871130951204	0.6020371878874056	1.274939519985872	0.39546518428200583	0.8445673481020399	1.7286809228345474	0.42538685643627405	0.6456027691770072	1.774566537279883	0.36931189843368767	0.7133436278690353	1.7843505930059744	0.41667012162057426	0.8836844361853461	1.755280607448578	0.2641182049965908	0.27649962441216047	0.2771081566426794	0.22419764999490363	0.175266614347568	0.047643396988786633	0.2960362358265054	0.14712044068460947	0.19856981544774824	0.45853964946415143	0.313375854747244	0.3058018004802919	0.5971973323382918	0.46326094193857903	0.4810454140602947	0.6056380404771838	0.2225813546565806	0.5036712095783723	0.596453418138591	0.08996997628425346	0.4699313919858841	0.6083030463546928	0.10289583505559083	0.4765974381377308	0.6190161896685824	0.11614490363184402	0.5144397417833331	0.12089937947945001	0.24246694914644026	0.3991203271219934	0.026334974404002	0.35895545779826266	0.6240223277455668	0.083797016967306	0.10707484908759414	0.5812282683227861	0.11787542733704534	-0.031402665810262555	0.5361863604400375	0.11315977006447053	-0.046445459092377815	0.5386989821126351	0.1021437360520546	-0.022996252659353792	0.5721745726335161
167	2.982142857142857	0.4671310874323139	0.4372657924724996	0.7923357380765719	0.521952551375858	0.5683103113817108	1.2501299739335339	0.5903899080333093	0.7299260503683027	1.6650459462022533	0.5865674053658027	0.5919006969901084	1.7349968626883083	0.6467227591681356	0.6127042336223928	1.7251162243274398	0.5839098862636347	0.8246248464083077	1.7211099767148426	0.25245861131203423	0.43681659557499997	0.8321533550832696	0.3323039895458861	0.601786731893942	1.2749170487889436	0.3945383059846256	0.8430715698067093	1.7281303417749418	0.4242900168801539	0.6409277556104116	1.7689442931140795	0.36915709314961587	0.7117944535018604	1.781583915184512	0.4143711295068698	0.8822013930952737	1.7560011919176164	0.26402639207208256	0.27607136824219103	0.2774760973732592	0.22047147762536196	0.17342593233946843	0.04873125270991803	0.29551002407686716	0.14596516746152827	0.19842791720901523	0.4582917009968618	0.3084687728017813	0.3071996071137326	0.5902750507249604	0.4754761942414459	0.47468012664120485	0.6063501598420441	0.22938868785928676	0.5187625391473981	0.5873789399144506	0.06998804746939812	0.499455180386513	0.5992469320290852	0.08214608870605285	0.5034671676756639	0.6051992806876948	0.11363194644504844	0.53895813667167	0.12164900752983798	0.24864638613498324	0.3978540478953435	0.04832814857301721	0.377571008109153	0.6216025493481552	0.09302209278461271	0.12688424894395675	0.5937546385335775	0.12650069576304304	-0.015252071738941927	0.5577669680636053	0.11771844710523702	-0.04206426659661637	0.5637924747684553	0.10916547787042179	-0.011451536900076744	0.5945626443059624
